<svg xmlns="http://www.w3.org/2000/svg" xmlns:xlink="http://www.w3.org/1999/xlink" fill="none" version="1.1" width="8.75" height="8.75" viewBox="0 0 8.75 8.75"><g transform="matrix(1,0,0,-1,0,17.5)"><path d="M8.50391,15.996089999999999Q8.75,16.26953,8.75,16.625Q8.75,16.98047,8.50391,17.253909999999998Q8.23047,17.5,7.875,17.5Q7.51953,17.5,7.24609,17.253909999999998L4.375,14.35547L1.50391,17.253909999999998Q1.23047,17.5,0.875,17.5Q0.519531,17.5,0.246094,17.253909999999998Q0,16.98047,0,16.625Q0,16.26953,0.246094,15.996089999999999L3.14453,13.125L0.246094,10.25391Q0,9.98047,0,9.625Q0,9.269531,0.246094,8.996094Q0.519531,8.75,0.875,8.75Q1.23047,8.75,1.50391,8.996094L4.375,11.89453L7.24609,8.996094Q7.51953,8.75,7.875,8.75Q8.23047,8.75,8.50391,8.996094Q8.75,9.269531,8.75,9.625Q8.75,9.98047,8.50391,10.25391L5.60547,13.125L8.50391,15.996089999999999Z" fill="#374151" fill-opacity="1" style="mix-blend-mode:passthrough"/></g></svg>