<svg xmlns="http://www.w3.org/2000/svg" xmlns:xlink="http://www.w3.org/1999/xlink" fill="none" version="1.1" width="40" height="40" viewBox="0 0 40 40"><defs><clipPath id="master_svg0_14_162"><rect x="12" y="12" width="16" height="16" rx="0"/></clipPath></defs><g><rect x="0" y="0" width="40" height="40" rx="20" fill="#FEE2E2" fill-opacity="1" style="mix-blend-mode:passthrough"/><g clip-path="url(#master_svg0_14_162)"><g transform="matrix(1,0,0,-1,0,54.6875)"><g><path d="M20.0000603125,41.34375Q20.7050403125,41.31255,21.072860312499998,40.71875L27.6935203125,29.21875Q28.0000203125,28.59375,27.6935203125,27.96875Q27.3257203125,27.375,26.620720312499998,27.34375L13.3793703125,27.34375Q12.6743933125,27.375,12.3065773125,27.96875Q12.0000633125,28.59375,12.3065773125,29.21875L18.9579203125,40.71875Q19.3257303125,41.31255,20.0000603125,41.34375ZM20.0000603125,37.34375Q19.3257303125,37.28125,19.2644303125,36.59375L19.2644303125,33.09375Q19.3257303125,32.40625,20.0000603125,32.34375Q20.6743903125,32.40625,20.7357003125,33.09375L20.7357003125,36.59375Q20.6743903125,37.28125,20.0000603125,37.34375ZM20.9809103125,30.34375Q20.9809103125,30.78125,20.7050403125,31.0625Q20.4291803125,31.34375,20.0000603125,31.34375Q19.5709403125,31.34375,19.295080312499998,31.0625Q19.0192203125,30.78125,19.0192203125,30.34375Q19.0192203125,29.90625,19.295080312499998,29.625Q19.5709403125,29.34375,20.0000603125,29.34375Q20.4291803125,29.34375,20.7050403125,29.625Q20.9809103125,29.90625,20.9809103125,30.34375Z" fill="#DC2626" fill-opacity="1" style="mix-blend-mode:passthrough"/></g></g></g></g></svg>