<svg xmlns="http://www.w3.org/2000/svg" xmlns:xlink="http://www.w3.org/1999/xlink" fill="none" version="1.1" width="12.25" height="12.25" viewBox="0 0 12.25 12.25"><g transform="matrix(1,0,0,-1,0,24.5)"><path d="M1.75,24.5Q1.01172,24.4727,0.519531,23.9805Q0.0273438,23.488300000000002,0,22.75L0,14Q0.0273438,13.26172,0.519531,12.769531Q1.01172,12.2773438,1.75,12.25L10.5,12.25Q11.2383,12.2773438,11.7305,12.769531Q12.2227,13.26172,12.25,14L12.25,20.64453Q12.25,21.35547,11.7305,21.875L9.625,23.9805Q9.10547,24.5,8.39453,24.5L1.75,24.5ZM1.75,21.875Q1.75,22.2578,1.99609,22.5039Q2.24219,22.75,2.625,22.75L7.875,22.75Q8.25781,22.75,8.50391,22.5039Q8.75,22.2578,8.75,21.875L8.75,20.125Q8.75,19.74219,8.50391,19.49609Q8.25781,19.25,7.875,19.25L2.625,19.25Q2.24219,19.25,1.99609,19.49609Q1.75,19.74219,1.75,20.125L1.75,21.875ZM6.125,17.5Q7.10938,17.47266,7.62891,16.625Q8.12109,15.75,7.62891,14.875Q7.10938,14.02734,6.125,14Q5.14062,14.02734,4.62109,14.875Q4.12891,15.75,4.62109,16.625Q5.14062,17.47266,6.125,17.5Z" fill="#3B82F6" fill-opacity="1" style="mix-blend-mode:passthrough"/></g></svg>