<?xml version="1.0" encoding="UTF-8"?>
<!DOCTYPE svg PUBLIC "-//W3C//DTD SVG 1.1//EN" "http://www.w3.org/Graphics/SVG/1.1/DTD/svg11.dtd">
<svg xmlns="http://www.w3.org/2000/svg" version="1.1" width="800px" height="732px" style="shape-rendering:geometricPrecision; text-rendering:geometricPrecision; image-rendering:optimizeQuality; fill-rule:evenodd; clip-rule:evenodd" xmlns:xlink="http://www.w3.org/1999/xlink">
<g><path style="opacity:0.995" fill="#865b43" d="M 353.5,-0.5 C 356.833,-0.5 360.167,-0.5 363.5,-0.5C 381.141,0.728365 398.474,4.22836 415.5,10C 429.192,15.6923 438.859,25.3589 444.5,39C 463.577,37.4307 480.243,42.9307 494.5,55.5C 496.275,58.2109 498.609,60.2109 501.5,61.5C 520.047,82.131 528.714,106.464 527.5,134.5C 527.5,135.833 527.5,137.167 527.5,138.5C 526.52,182.941 514.686,224.275 492,262.5C 475.833,289.33 453.333,308.83 424.5,321C 418.808,323.351 413.142,324.518 407.5,324.5C 421.952,313.544 433.786,300.211 443,284.5C 463.462,246.068 473.129,205.068 472,161.5C 464.107,160.768 456.274,159.434 448.5,157.5C 449.838,152.686 449.338,148.019 447,143.5C 442.177,133.684 436.177,124.684 429,116.5C 429.935,130.823 431.102,145.156 432.5,159.5C 420.162,159.667 407.829,159.5 395.5,159C 388.641,148.769 386.141,137.603 388,125.5C 379.918,134.576 376.084,145.243 376.5,157.5C 361.578,158.483 346.578,158.816 331.5,158.5C 331.666,148.494 331.5,138.494 331,128.5C 320.434,135.872 315.934,146.038 317.5,159C 305.833,159.333 294.167,159.667 282.5,160C 272.118,198.779 275.618,236.279 293,272.5C 303.124,291.457 316.958,307.124 334.5,319.5C 319.717,314.13 305.383,307.797 291.5,300.5C 285.359,294.368 278.359,289.368 270.5,285.5C 243.133,262.46 226.3,233.126 220,197.5C 216.937,184 215.437,170.334 215.5,156.5C 215.5,154.833 215.5,153.167 215.5,151.5C 215.403,143.425 216.07,135.425 217.5,127.5C 218.234,126.292 218.567,124.959 218.5,123.5C 221.933,106.532 227.933,90.5324 236.5,75.5C 238.226,73.7721 239.559,71.7721 240.5,69.5C 265.868,26.4924 303.534,3.15909 353.5,-0.5 Z"/></g>
<g><path style="opacity:1" fill="#9c755e" d="M 350.5,37.5 C 373.56,36.1822 395.227,41.0155 415.5,52C 381.948,44.4493 348.948,46.4493 316.5,58C 306.857,61.5719 297.69,66.0719 289,71.5C 289.195,69.255 290.362,67.4216 292.5,66C 309.115,50.859 328.448,41.359 350.5,37.5 Z"/></g>
<g><path style="opacity:1" fill="#9c755e" d="M 361.5,49.5 C 371.889,49.1302 382.223,49.6302 392.5,51C 345.92,58.1924 308.42,80.359 280,117.5C 294.529,79.8135 321.695,57.1468 361.5,49.5 Z"/></g>
<g><path style="opacity:0.945" fill="#6d4f99" d="M 177.5,53.5 C 190.769,51.6029 196.602,57.2696 195,70.5C 191.628,77.4329 186.128,79.9329 178.5,78C 171.262,74.3454 168.762,68.5121 171,60.5C 172.694,57.6424 174.861,55.309 177.5,53.5 Z"/></g>
<g><path style="opacity:0.774" fill="#6b4c95" d="M 494.5,55.5 C 576.479,82.7362 639.645,133.403 684,207.5C 689.054,216.274 693.554,225.274 697.5,234.5C 695.326,234.25 693.659,233.25 692.5,231.5C 650.83,150.165 587.163,93.4988 501.5,61.5C 498.609,60.2109 496.275,58.2109 494.5,55.5 Z"/></g>
<g><path style="opacity:1" fill="#9c745d" d="M 467.5,59.5 C 498.306,80.8016 510.806,110.135 505,147.5C 499.566,114.992 487.066,85.6591 467.5,59.5 Z"/></g>
<g><path style="opacity:0.786" fill="#694c94" d="M 240.5,69.5 C 239.559,71.7721 238.226,73.7721 236.5,75.5C 202.473,91.3577 172.14,112.524 145.5,139C 143.831,139.122 142.165,138.788 140.5,138C 169.643,109.02 202.976,86.1867 240.5,69.5 Z"/></g>
<g><path style="opacity:0.741" fill="#6c4e98" d="M 528.5,108.5 C 533.133,110.483 537.466,112.983 541.5,116C 540.953,116.925 540.287,117.758 539.5,118.5C 535.993,116.246 532.327,114.246 528.5,112.5C 527.374,111.192 527.374,109.858 528.5,108.5 Z"/></g>
<g><path style="opacity:1" fill="#f0d8bd" d="M 407.5,324.5 C 406.833,324.5 406.5,324.833 406.5,325.5C 399.349,327.666 392.015,328.999 384.5,329.5C 381.833,329.5 379.167,329.5 376.5,329.5C 376.5,272.167 376.5,214.833 376.5,157.5C 376.084,145.243 379.918,134.576 388,125.5C 386.141,137.603 388.641,148.769 395.5,159C 407.829,159.5 420.162,159.667 432.5,159.5C 431.102,145.156 429.935,130.823 429,116.5C 436.177,124.684 442.177,133.684 447,143.5C 449.338,148.019 449.838,152.686 448.5,157.5C 456.274,159.434 464.107,160.768 472,161.5C 473.129,205.068 463.462,246.068 443,284.5C 433.786,300.211 421.952,313.544 407.5,324.5 Z"/></g>
<g><path style="opacity:0.712" fill="#6b4d96" d="M 551.5,122.5 C 556.804,124.358 560.971,127.358 564,131.5C 562.951,132.517 561.784,132.684 560.5,132C 557.672,129.752 554.672,127.752 551.5,126C 550.829,125.014 550.829,123.847 551.5,122.5 Z"/></g>
<g><path style="opacity:0.716" fill="#6c4e97" d="M 218.5,123.5 C 218.567,124.959 218.234,126.292 217.5,127.5C 214.782,125.577 215.116,124.244 218.5,123.5 Z"/></g>
<g><path style="opacity:1" fill="#dfbea0" d="M 376.5,157.5 C 376.5,214.833 376.5,272.167 376.5,329.5C 379.167,329.5 381.833,329.5 384.5,329.5C 367.687,331.673 351.687,328.673 336.5,320.5C 335.508,320.672 334.842,320.338 334.5,319.5C 316.958,307.124 303.124,291.457 293,272.5C 275.618,236.279 272.118,198.779 282.5,160C 294.167,159.667 305.833,159.333 317.5,159C 315.934,146.038 320.434,135.872 331,128.5C 331.5,138.494 331.666,148.494 331.5,158.5C 346.578,158.816 361.578,158.483 376.5,157.5 Z"/></g>
<g><path style="opacity:0.693" fill="#6a4c96" d="M 203.5,132.5 C 205.686,132.511 206.519,133.511 206,135.5C 202.574,138.942 198.74,141.442 194.5,143C 193.549,142.282 193.383,141.449 194,140.5C 197.358,137.969 200.524,135.302 203.5,132.5 Z"/></g>
<g><path style="opacity:0.812" fill="#6a4d95" d="M 527.5,134.5 C 548.902,145.72 568.235,159.886 585.5,177C 591.641,176.637 594.475,179.47 594,185.5C 596.335,188.665 598.835,191.665 601.5,194.5C 598.122,193.977 595.122,192.644 592.5,190.5C 592.5,189.833 592.167,189.5 591.5,189.5C 590.791,188.596 589.791,188.263 588.5,188.5C 586.447,188.598 584.78,187.931 583.5,186.5C 582.248,184.661 582.248,182.828 583.5,181C 566.925,163.906 548.259,149.739 527.5,138.5C 527.5,137.167 527.5,135.833 527.5,134.5 Z"/></g>
<g><path style="opacity:0.713" fill="#694c91" d="M 573.5,138.5 C 574.552,138.351 575.552,138.517 576.5,139C 579.427,141.382 582.261,143.882 585,146.5C 585.5,148.667 584.667,149.5 582.5,149C 579.167,146.333 575.833,143.667 572.5,141C 573.252,140.329 573.586,139.496 573.5,138.5 Z"/></g>
<g><path style="opacity:0.74" fill="#65498f" d="M 182.5,149.5 C 184.686,149.511 185.519,150.511 185,152.5C 181.407,155.382 177.907,158.382 174.5,161.5C 173.713,160.758 173.047,159.925 172.5,159C 175.729,155.601 179.062,152.435 182.5,149.5 Z"/></g>
<g><path style="opacity:0.749" fill="#6a4b96" d="M 215.5,151.5 C 215.5,153.167 215.5,154.833 215.5,156.5C 209.924,159.902 204.757,163.902 200,168.5C 199.167,167.667 198.333,166.833 197.5,166C 203.085,160.574 209.085,155.741 215.5,151.5 Z"/></g>
<g><path style="opacity:0.704" fill="#674b90" d="M 595.5,155.5 C 599.298,158.796 602.964,162.296 606.5,166C 605.667,166.833 604.833,167.667 604,168.5C 600.5,165 597,161.5 593.5,158C 594.381,157.292 595.047,156.458 595.5,155.5 Z"/></g>
<g><path style="opacity:0.68" fill="#684c93" d="M 162.5,168.5 C 164.686,168.511 165.519,169.511 165,171.5C 162.128,174.037 159.628,176.87 157.5,180C 153.799,180.645 152.965,179.478 155,176.5C 157.705,173.964 160.205,171.297 162.5,168.5 Z"/></g>
<g><path style="opacity:0.995" fill="#f4f1f0" d="M 583.5,186.5 C 584.78,187.931 586.447,188.598 588.5,188.5C 589.209,189.404 590.209,189.737 591.5,189.5C 592.167,189.5 592.5,189.833 592.5,190.5C 595.122,192.644 598.122,193.977 601.5,194.5C 631.753,207.029 662.086,219.362 692.5,231.5C 693.659,233.25 695.326,234.25 697.5,234.5C 731.511,248.173 765.511,261.84 799.5,275.5C 799.5,276.833 799.5,278.167 799.5,279.5C 776.128,334.6 753.128,389.933 730.5,445.5C 723.913,448.362 717.246,451.029 710.5,453.5C 709.833,453.833 709.167,454.167 708.5,454.5C 636.236,425.133 564.07,395.466 492,365.5C 489.173,367.254 489.006,369.088 491.5,371C 562.236,400.076 632.903,429.243 703.5,458.5C 702.205,459.488 700.872,460.488 699.5,461.5C 628.953,432.311 558.453,402.978 488,373.5C 486.077,375.119 485.577,376.952 486.5,379C 556.055,407.566 625.388,436.399 694.5,465.5C 693.71,466.401 692.71,467.068 691.5,467.5C 622.191,439.003 552.857,410.837 483.5,383C 482.041,386.084 483.041,388.084 486.5,389C 553.155,416.605 619.822,444.105 686.5,471.5C 685.738,473.262 684.404,474.262 682.5,474.5C 615.635,446.569 548.635,418.903 481.5,391.5C 477.622,393.401 477.622,395.234 481.5,397C 547.037,423.943 612.37,451.11 677.5,478.5C 677.167,479.5 676.5,480.167 675.5,480.5C 672.353,480.263 669.353,479.43 666.5,478C 603.284,451.381 539.95,425.381 476.5,400C 475.167,401.667 475.167,403.333 476.5,405C 540.855,431.513 605.188,458.013 669.5,484.5C 668.833,485.833 667.833,486.833 666.5,487.5C 602.398,461.075 538.231,434.742 474,408.5C 472.124,409.619 471.291,411.286 471.5,413.5C 534.887,438.735 597.887,464.735 660.5,491.5C 656.817,495.18 652.817,498.514 648.5,501.5C 588.272,477.698 528.272,453.198 468.5,428C 466.051,427.225 464.384,428.058 463.5,430.5C 464.09,431.799 465.09,432.632 466.5,433C 525.47,457.038 584.137,481.538 642.5,506.5C 641.5,507.167 640.5,507.833 639.5,508.5C 580.407,484.456 521.407,460.122 462.5,435.5C 460.561,437.122 460.228,438.956 461.5,441C 518.167,464.333 574.833,487.667 631.5,511C 632.756,511.417 633.423,512.25 633.5,513.5C 632.5,514.167 631.5,514.833 630.5,515.5C 573.555,491.566 516.388,467.9 459,444.5C 457.124,445.619 456.291,447.286 456.5,449.5C 513.234,472.039 569.567,495.372 625.5,519.5C 624.71,520.401 623.71,521.068 622.5,521.5C 566.472,498.99 510.639,475.99 455,452.5C 454.293,454.081 453.46,455.581 452.5,457C 507.526,479.849 562.526,502.682 617.5,525.5C 616.564,526.974 615.23,527.974 613.5,528.5C 560.155,506.438 506.822,484.272 453.5,462C 451.155,461.456 449.821,462.456 449.5,465C 449.905,465.945 450.572,466.612 451.5,467C 504.152,488.334 556.485,510.167 608.5,532.5C 597.143,541.852 585.476,550.852 573.5,559.5C 570.682,557.928 567.682,556.594 564.5,555.5C 520.797,536.655 476.797,518.321 432.5,500.5C 426.914,498.374 421.581,495.707 416.5,492.5C 432.963,454.1 448.63,415.434 463.5,376.5C 492.081,308.607 520.581,240.607 549,172.5C 560.336,177.585 571.836,182.252 583.5,186.5 Z"/></g>
<g><path style="opacity:0.763" fill="#684995" d="M 613.5,175.5 C 617.935,178.1 621.602,181.6 624.5,186C 623.667,186.833 622.833,187.667 622,188.5C 619.37,184.868 616.37,181.535 613,178.5C 612.53,177.423 612.697,176.423 613.5,175.5 Z"/></g>
<g><path style="opacity:0.729" fill="#674b92" d="M 144.5,188.5 C 147.838,189.193 148.338,190.86 146,193.5C 144.188,196.28 142.021,198.78 139.5,201C 138.275,201.563 137.275,201.23 136.5,200C 139.3,196.225 141.966,192.392 144.5,188.5 Z"/></g>
<g><path style="opacity:1" fill="#b4b2b2" d="M 559.5,198.5 C 593.501,211.722 627.167,225.722 660.5,240.5C 653.57,255.962 647.237,271.629 641.5,287.5C 607.635,274.82 574.135,261.154 541,246.5C 540.333,245.5 540.333,244.5 541,243.5C 547.179,228.479 553.346,213.479 559.5,198.5 Z"/></g>
<g><path style="opacity:0.726" fill="#6a4c97" d="M 128.5,210.5 C 129.643,210.908 130.643,211.575 131.5,212.5C 129.192,216.795 126.526,220.795 123.5,224.5C 122.5,224.167 121.833,223.5 121.5,222.5C 123.845,218.472 126.178,214.472 128.5,210.5 Z"/></g>
<g><path style="opacity:0.755" fill="#6b4e98" d="M 113.5,234.5 C 115.103,234.312 116.437,234.812 117.5,236C 115.293,240.247 112.96,244.414 110.5,248.5C 109.28,248.113 108.613,247.28 108.5,246C 110.316,242.204 111.983,238.37 113.5,234.5 Z"/></g>
<g><path style="opacity:1" fill="#f8b021" d="M 669.5,243.5 C 705.141,258.318 740.808,273.151 776.5,288C 775.624,289.586 774.624,291.086 773.5,292.5C 738.092,277.756 702.759,262.922 667.5,248C 668.267,246.53 668.933,245.03 669.5,243.5 Z"/></g>
<g><path style="opacity:0.999" fill="#ed7754" d="M 224.5,289.5 C 209.719,300.389 201.719,315.056 200.5,333.5C 166.373,337.793 149.54,357.126 150,391.5C 150.945,395.494 151.778,399.494 152.5,403.5C 135.656,402.888 120.656,397.555 107.5,387.5C 123.309,367.228 138.642,346.561 153.5,325.5C 144.498,301.11 134.498,276.776 123.5,252.5C 158.885,239.638 189.385,246.971 215,274.5C 218.677,279.19 221.844,284.19 224.5,289.5 Z"/></g>
<g><path style="opacity:0.758" fill="#6b4d97" d="M 63.5,252.5 C 64.8333,252.5 66.1667,252.5 67.5,252.5C 44.9921,310.23 36.9921,369.897 43.5,431.5C 42.2011,430.91 41.3678,429.91 41,428.5C 33.962,367.937 41.462,309.27 63.5,252.5 Z"/></g>
<g><path style="opacity:0.998" fill="#a9a9d4" d="M 123.5,252.5 C 134.498,276.776 144.498,301.11 153.5,325.5C 129.28,334.61 105.28,344.276 81.5,354.5C 70.292,323.212 75.6253,295.212 97.5,270.5C 99.8333,268.833 101.833,266.833 103.5,264.5C 104.167,264.5 104.5,264.167 104.5,263.5C 110.37,259.064 116.703,255.397 123.5,252.5 Z"/></g>
<g><path style="opacity:1" fill="#f8b020" d="M 665.5,252.5 C 701.087,267.029 736.753,281.362 772.5,295.5C 772.81,299.332 771.143,300.832 767.5,300C 734.614,286.057 701.614,272.391 668.5,259C 664.726,258.019 663.726,255.852 665.5,252.5 Z"/></g>
<g><path style="opacity:0.729" fill="#6c4f96" d="M 104.5,263.5 C 103.833,263.5 103.5,263.833 103.5,264.5C 101.833,266.833 99.8333,268.833 97.5,270.5C 99.0451,266.363 100.878,262.363 103,258.5C 103.925,259.047 104.758,259.713 105.5,260.5C 104.873,261.417 104.539,262.417 104.5,263.5 Z"/></g>
<g><path style="opacity:1" fill="#d4e4b2" d="M 534.5,259.5 C 567.39,273.354 600.39,287.021 633.5,300.5C 634.614,301.723 634.781,303.056 634,304.5C 629.224,315.051 624.724,325.718 620.5,336.5C 618.534,337.372 616.534,337.205 614.5,336C 582.508,322.997 550.841,309.497 519.5,295.5C 524.515,283.474 529.515,271.474 534.5,259.5 Z"/></g>
<g><path style="opacity:1" fill="#f8b021" d="M 662.5,260.5 C 697.35,275.285 732.35,289.785 767.5,304C 768.824,309.007 767.158,310.341 762.5,308C 728.384,293.853 694.384,279.52 660.5,265C 661.267,263.53 661.933,262.03 662.5,260.5 Z"/></g>
<g><path style="opacity:1" fill="#f8b021" d="M 658.5,269.5 C 694.405,283.786 730.071,298.62 765.5,314C 764.663,315.011 764.33,316.178 764.5,317.5C 762.073,317.477 759.74,316.977 757.5,316C 724.614,302.057 691.614,288.391 658.5,275C 657.464,273.224 657.464,271.391 658.5,269.5 Z"/></g>
<g><path style="opacity:1" fill="#f8b020" d="M 654.5,278.5 C 690.028,292.261 725.361,306.594 760.5,321.5C 761.748,323.597 761.248,325.264 759,326.5C 723.783,311.928 688.616,297.262 653.5,282.5C 654.246,281.264 654.579,279.93 654.5,278.5 Z"/></g>
<g><path style="opacity:0.981" fill="#f1ab15" d="M 270.5,285.5 C 278.359,289.368 285.359,294.368 291.5,300.5C 305.233,318.972 307.067,338.638 297,359.5C 293.71,364.622 289.877,369.289 285.5,373.5C 275.487,380.118 264.487,384.285 252.5,386C 251.653,390.105 250.987,394.272 250.5,398.5C 243.938,418.12 230.605,430.454 210.5,435.5C 205.195,436.442 199.861,436.609 194.5,436C 189.427,434.981 184.427,433.815 179.5,432.5C 166.744,426.408 157.744,416.741 152.5,403.5C 151.778,399.494 150.945,395.494 150,391.5C 149.54,357.126 166.373,337.793 200.5,333.5C 201.719,315.056 209.719,300.389 224.5,289.5C 239.227,281.828 254.56,280.495 270.5,285.5 Z"/></g>
<g><path style="opacity:1" fill="#f8b021" d="M 651.5,286.5 C 687.298,301.043 722.965,315.876 758.5,331C 757.853,332.609 757.02,334.109 756,335.5C 721.906,321.204 687.739,307.038 653.5,293C 650.331,291.658 649.665,289.492 651.5,286.5 Z"/></g>
<g><path style="opacity:1" fill="#fdf4e2" d="M 243.5,285.5 C 273.488,284.009 292.322,297.676 300,326.5C 301.244,356.911 287.077,375.411 257.5,382C 236.204,383.103 220.037,374.603 209,356.5C 198.156,331.039 203.656,309.873 225.5,293C 231.328,289.788 237.328,287.288 243.5,285.5 Z"/></g>
<g><path style="opacity:1" fill="#f2ab0f" d="M 242.5,287.5 C 269.119,284.88 287.286,295.88 297,320.5C 302.251,349.548 291.084,369.048 263.5,379C 238.713,383.69 220.547,374.856 209,352.5C 200.757,329.295 206.257,310.128 225.5,295C 231.032,291.894 236.699,289.394 242.5,287.5 Z"/></g>
<g><path style="opacity:1" fill="#f7cfce" d="M 643.5,305.5 C 679.028,319.261 714.361,333.594 749.5,348.5C 750.583,349.365 750.749,350.365 750,351.5C 745.294,363.151 740.127,374.484 734.5,385.5C 699.182,371.167 664.182,356.334 629.5,341C 634.318,329.201 638.985,317.368 643.5,305.5 Z"/></g>
<g><path style="opacity:1" fill="#b6b4b4" d="M 511.5,313.5 C 584.167,343.167 656.833,372.833 729.5,402.5C 729.709,404.714 728.876,406.381 727,407.5C 654.517,378.172 582.35,348.172 510.5,317.5C 511.246,316.264 511.579,314.93 511.5,313.5 Z"/></g>
<g><path style="opacity:1" fill="#c0a186" d="M 336.5,320.5 C 351.687,328.673 367.687,331.673 384.5,329.5C 392.015,328.999 399.349,327.666 406.5,325.5C 410.935,344.385 421.268,359.052 437.5,369.5C 436.5,371.167 435.167,372.5 433.5,373.5C 433.53,372.503 433.03,371.836 432,371.5C 427.51,373.273 423.01,374.94 418.5,376.5C 392.062,360.441 365.395,344.608 338.5,329C 337.619,328.292 336.953,327.458 336.5,326.5C 336.5,324.5 336.5,322.5 336.5,320.5 Z"/></g>
<g><path style="opacity:1" fill="#b6b4b4" d="M 508.5,322.5 C 580.696,351.595 652.696,381.262 724.5,411.5C 725.666,413.365 725.333,415.032 723.5,416.5C 651.914,386.638 580.248,356.971 508.5,327.5C 507.334,325.833 507.334,324.166 508.5,322.5 Z"/></g>
<g><path style="opacity:0.993" fill="#b7deed" d="M 153.5,325.5 C 138.642,346.561 123.309,367.228 107.5,387.5C 104.888,386.221 102.555,384.555 100.5,382.5C 100.262,380.596 99.2624,379.262 97.5,378.5C 90.2088,371.863 84.8754,363.863 81.5,354.5C 105.28,344.276 129.28,334.61 153.5,325.5 Z"/></g>
<g><path style="opacity:0.994" fill="#dfbea1" d="M 336.5,326.5 C 336.953,327.458 337.619,328.292 338.5,329C 365.395,344.608 392.062,360.441 418.5,376.5C 402.19,382.493 385.856,388.493 369.5,394.5C 348.429,387.032 327.429,379.365 306.5,371.5C 305.702,371.957 305.369,372.624 305.5,373.5C 304.094,373.027 303.427,372.027 303.5,370.5C 319.876,359.801 330.876,345.134 336.5,326.5 Z"/></g>
<g><path style="opacity:0.912" fill="#6d509a" d="M -0.5,341.5 C -0.5,338.833 -0.5,336.167 -0.5,333.5C 2.59189,330.645 6.25856,329.812 10.5,331C 16.0623,336.163 15.729,340.829 9.5,345C 5.19105,346.244 1.85771,345.077 -0.5,341.5 Z"/></g>
<g><path style="opacity:1" fill="#b6b4b4" d="M 504.5,330.5 C 577.468,360.324 650.135,390.657 722.5,421.5C 721.616,423.942 719.949,424.775 717.5,424C 646.316,394.496 575.15,364.996 504,335.5C 504.019,333.893 504.185,332.226 504.5,330.5 Z"/></g>
<g><path style="opacity:1" fill="#b6b4b4" d="M 501.5,339.5 C 573.479,369.154 645.479,398.821 717.5,428.5C 718.748,430.597 718.248,432.264 716,433.5C 644.443,403.971 572.943,374.305 501.5,344.5C 500.334,342.833 500.334,341.166 501.5,339.5 Z"/></g>
<g><path style="opacity:1" fill="#fdf5e2" d="M 192.5,336.5 C 195.247,336.187 197.914,336.52 200.5,337.5C 178.535,339.645 163.702,350.979 156,371.5C 150.555,401.793 162.389,421.627 191.5,431C 224.678,432.996 243.678,417.496 248.5,384.5C 247.463,411.669 233.463,427.836 206.5,433C 177.786,433.891 159.953,420.391 153,392.5C 151.581,363.436 164.747,344.769 192.5,336.5 Z"/></g>
<g><path style="opacity:1" fill="#b6b4b4" d="M 497.5,348.5 C 570.568,377.523 643.235,407.523 715.5,438.5C 714.917,440.002 714.084,441.335 713,442.5C 640.885,412.776 568.885,382.776 497,352.5C 496.805,351.181 496.972,349.847 497.5,348.5 Z"/></g>
<g><path style="opacity:1" fill="#fbcd42" d="M 196.5,352.5 C 199.187,352.336 201.854,352.503 204.5,353C 210.05,366.716 219.716,376.216 233.5,381.5C 233.476,403.887 222.31,415.887 200,417.5C 176.434,414.09 166.1,400.423 169,376.5C 173.384,362.946 182.55,354.946 196.5,352.5 Z"/></g>
<g><path style="opacity:1" fill="#b6b4b4" d="M 494.5,356.5 C 566.73,386.449 639.063,416.116 711.5,445.5C 711.175,450.546 708.842,451.713 704.5,449C 633.688,419.758 563.022,390.258 492.5,360.5C 493.18,359.14 493.847,357.807 494.5,356.5 Z"/></g>
<g><path style="opacity:1" fill="#e8981a" d="M 242.5,299.5 C 273.164,297.665 287.664,311.998 286,342.5C 278.805,362.357 264.638,370.857 243.5,368C 223.331,360.512 214.831,346.012 218,324.5C 222.352,312.316 230.518,303.983 242.5,299.5 Z"/></g>
<g><path style="opacity:1" fill="#fbcc41" d="M 243.5,301.5 C 263.434,298.876 276.934,306.876 284,325.5C 286.041,353.793 272.874,367.293 244.5,366C 224.998,359.514 216.831,346.014 220,325.5C 224.018,313.65 231.851,305.65 243.5,301.5 Z"/></g>
<g><path style="opacity:1" fill="#fefbf4" d="M 247.5,313.5 C 251.702,313.384 255.702,314.217 259.5,316C 262.87,318.697 264.204,322.197 263.5,326.5C 264.5,326.5 265.5,326.5 266.5,326.5C 266.5,328.167 266.5,329.833 266.5,331.5C 256.148,333.5 256.148,334.5 266.5,334.5C 266.5,336.167 266.5,337.833 266.5,339.5C 260.491,339.334 254.491,339.501 248.5,340C 246.972,342.881 247.638,345.214 250.5,347C 255.148,347.883 259.481,347.05 263.5,344.5C 265.831,349.625 264.164,352.458 258.5,353C 251.319,355.007 245.485,353.174 241,347.5C 239.637,343.186 238.47,338.853 237.5,334.5C 240.893,334.938 243.893,334.105 246.5,332C 243.518,331.502 240.518,331.335 237.5,331.5C 237.5,329.833 237.5,328.167 237.5,326.5C 243.509,326.666 249.509,326.499 255.5,326C 256.86,324.062 256.527,322.396 254.5,321C 251.5,320.333 248.5,320.333 245.5,321C 244.437,322.188 243.103,322.688 241.5,322.5C 241.338,320.473 241.505,318.473 242,316.5C 243.876,315.391 245.709,314.391 247.5,313.5 Z"/></g>
<g><path style="opacity:1" fill="#fefcf6" d="M 193.5,365.5 C 198.599,365.175 203.599,365.675 208.5,367C 211.87,369.697 213.204,373.197 212.5,377.5C 213.5,377.5 214.5,377.5 215.5,377.5C 215.5,379.167 215.5,380.833 215.5,382.5C 211.836,382 208.836,383.167 206.5,386C 209.482,386.498 212.482,386.665 215.5,386.5C 215.5,387.833 215.5,389.167 215.5,390.5C 209.491,390.334 203.491,390.501 197.5,391C 196.2,397.356 198.867,399.69 205.5,398C 208,397.625 210.333,396.792 212.5,395.5C 213.952,398.282 213.619,400.782 211.5,403C 196.123,407.986 187.79,402.486 186.5,386.5C 188.199,386.66 189.866,386.494 191.5,386C 192.551,384.615 193.884,383.615 195.5,383C 192.518,382.502 189.518,382.335 186.5,382.5C 186.5,380.833 186.5,379.167 186.5,377.5C 192.5,377.5 198.5,377.5 204.5,377.5C 204.739,375.533 204.406,373.699 203.5,372C 199.003,371.271 194.67,371.771 190.5,373.5C 189.829,370.014 190.829,367.347 193.5,365.5 Z"/></g>
<g><path style="opacity:1" fill="#b6b4b4" d="M 708.5,454.5 C 707.055,456.063 705.389,457.396 703.5,458.5C 632.903,429.243 562.236,400.076 491.5,371C 489.006,369.088 489.173,367.254 492,365.5C 564.07,395.466 636.236,425.133 708.5,454.5 Z"/></g>
<g><path style="opacity:0.999" fill="#638b96" d="M 303.5,370.5 C 303.427,372.027 304.094,373.027 305.5,373.5C 318.134,392.101 328.134,412.101 335.5,433.5C 348.894,469.074 358.227,505.74 363.5,543.5C 360.78,553.614 359.78,563.948 360.5,574.5C 355.881,573.686 351.214,573.353 346.5,573.5C 337.817,548.799 325.984,525.799 311,504.5C 307.353,500.018 303.519,495.685 299.5,491.5C 302.778,480.909 308.945,472.576 318,466.5C 318.667,465.833 318.667,465.167 318,464.5C 296.599,441.265 274.099,419.265 250.5,398.5C 250.987,394.272 251.653,390.105 252.5,386C 264.487,384.285 275.487,380.118 285.5,373.5C 289.18,372.44 292.846,371.274 296.5,370C 298.929,369.297 301.262,369.463 303.5,370.5 Z"/></g>
<g><path style="opacity:0.999" fill="#638b97" d="M 437.5,369.5 C 446.266,371.421 454.933,373.755 463.5,376.5C 448.63,415.434 432.963,454.1 416.5,492.5C 421.581,495.707 426.914,498.374 432.5,500.5C 428.432,504.239 425.099,508.572 422.5,513.5C 408.444,510.432 395.444,512.765 383.5,520.5C 388.154,491.232 395.154,462.566 404.5,434.5C 411.762,412.978 421.429,392.645 433.5,373.5C 435.167,372.5 436.5,371.167 437.5,369.5 Z"/></g>
<g><path style="opacity:1" fill="#f9faf9" d="M 418.5,376.5 C 423.01,374.94 427.51,373.273 432,371.5C 433.03,371.836 433.53,372.503 433.5,373.5C 421.429,392.645 411.762,412.978 404.5,434.5C 392.606,421.72 380.94,408.72 369.5,395.5C 357.774,407.889 346.44,420.555 335.5,433.5C 328.134,412.101 318.134,392.101 305.5,373.5C 305.369,372.624 305.702,371.957 306.5,371.5C 327.429,379.365 348.429,387.032 369.5,394.5C 385.856,388.493 402.19,382.493 418.5,376.5 Z"/></g>
<g><path style="opacity:1" fill="#b6b4b4" d="M 699.5,461.5 C 698.055,463.063 696.389,464.396 694.5,465.5C 625.388,436.399 556.055,407.566 486.5,379C 485.577,376.952 486.077,375.119 488,373.5C 558.453,402.978 628.953,432.311 699.5,461.5 Z"/></g>
<g><path style="opacity:0.76" fill="#6c4f97" d="M 97.5,378.5 C 99.2624,379.262 100.262,380.596 100.5,382.5C 100.528,409.363 104.195,435.697 111.5,461.5C 111.027,462.906 110.027,463.573 108.5,463.5C 100.383,435.79 96.7166,407.457 97.5,378.5 Z"/></g>
<g><path style="opacity:1" fill="#b6b4b4" d="M 691.5,467.5 C 690.421,469.543 688.754,470.876 686.5,471.5C 619.822,444.105 553.155,416.605 486.5,389C 483.041,388.084 482.041,386.084 483.5,383C 552.857,410.837 622.191,439.003 691.5,467.5 Z"/></g>
<g><path style="opacity:1" fill="#b6b4b4" d="M 682.5,474.5 C 681.421,476.543 679.754,477.876 677.5,478.5C 612.37,451.11 547.037,423.943 481.5,397C 477.622,395.234 477.622,393.401 481.5,391.5C 548.635,418.903 615.635,446.569 682.5,474.5 Z"/></g>
<g><path style="opacity:1" fill="#dad8d7" d="M 404.5,434.5 C 395.154,462.566 388.154,491.232 383.5,520.5C 374.652,526.343 367.985,534.01 363.5,543.5C 358.227,505.74 348.894,469.074 335.5,433.5C 346.44,420.555 357.774,407.889 369.5,395.5C 380.94,408.72 392.606,421.72 404.5,434.5 Z"/></g>
<g><path style="opacity:1" fill="#476d7b" d="M 250.5,398.5 C 274.099,419.265 296.599,441.265 318,464.5C 318.667,465.167 318.667,465.833 318,466.5C 308.945,472.576 302.778,480.909 299.5,491.5C 303.519,495.685 307.353,500.018 311,504.5C 325.984,525.799 337.817,548.799 346.5,573.5C 318.768,579.064 303.435,595.898 300.5,624C 300.723,639.936 306.723,653.103 318.5,663.5C 302.167,664.167 285.833,664.833 269.5,665.5C 264.167,665.5 258.833,665.5 253.5,665.5C 254.749,663.864 256.416,662.697 258.5,662C 269.916,657.194 281.25,652.194 292.5,647C 296.612,642.996 298.112,638.163 297,632.5C 267.869,566.933 239.036,501.267 210.5,435.5C 230.605,430.454 243.938,418.12 250.5,398.5 Z"/></g>
<g><path style="opacity:1" fill="#b6b4b4" d="M 675.5,480.5 C 673.777,482.218 671.777,483.551 669.5,484.5C 605.188,458.013 540.855,431.513 476.5,405C 475.167,403.333 475.167,401.667 476.5,400C 539.95,425.381 603.284,451.381 666.5,478C 669.353,479.43 672.353,480.263 675.5,480.5 Z"/></g>
<g><path style="opacity:1" fill="#e8981a" d="M 196.5,352.5 C 182.55,354.946 173.384,362.946 169,376.5C 166.1,400.423 176.434,414.09 200,417.5C 222.31,415.887 233.476,403.887 233.5,381.5C 236.466,399.346 229.133,411.513 211.5,418C 190.937,422.826 176.437,415.659 168,396.5C 162.753,374.493 170.586,359.327 191.5,351C 195.5,350.333 199.5,350.333 203.5,351C 200.964,351.186 198.631,351.686 196.5,352.5 Z"/></g>
<g><path style="opacity:1" fill="#b6b4b4" d="M 666.5,487.5 C 664.777,489.218 662.777,490.551 660.5,491.5C 597.887,464.735 534.887,438.735 471.5,413.5C 471.291,411.286 472.124,409.619 474,408.5C 538.231,434.742 602.398,461.075 666.5,487.5 Z"/></g>
<g><path style="opacity:1" fill="#b6b4b4" d="M 648.5,501.5 C 646.525,503.137 644.525,504.804 642.5,506.5C 584.137,481.538 525.47,457.038 466.5,433C 465.09,432.632 464.09,431.799 463.5,430.5C 464.384,428.058 466.051,427.225 468.5,428C 528.272,453.198 588.272,477.698 648.5,501.5 Z"/></g>
<g><path style="opacity:0.993" fill="#c96d5f" d="M 179.5,432.5 C 184.427,433.815 189.427,434.981 194.5,436C 199.861,436.609 205.195,436.442 210.5,435.5C 239.036,501.267 267.869,566.933 297,632.5C 298.112,638.163 296.612,642.996 292.5,647C 281.25,652.194 269.916,657.194 258.5,662C 256.416,662.697 254.749,663.864 253.5,665.5C 240.528,670.656 227.862,676.322 215.5,682.5C 213.302,682.12 211.635,682.787 210.5,684.5C 182.405,696.379 154.405,708.546 126.5,721C 119.991,722.759 114.491,721.259 110,716.5C 79.4663,648.27 49.633,579.77 20.5,511C 21.059,505.871 23.3924,501.871 27.5,499C 54.526,487.152 81.526,475.319 108.5,463.5C 110.027,463.573 111.027,462.906 111.5,461.5C 134.167,451.833 156.833,442.167 179.5,432.5 Z"/></g>
<g><path style="opacity:1" fill="#b6b4b4" d="M 639.5,508.5 C 637.525,510.137 635.525,511.804 633.5,513.5C 633.423,512.25 632.756,511.417 631.5,511C 574.833,487.667 518.167,464.333 461.5,441C 460.228,438.956 460.561,437.122 462.5,435.5C 521.407,460.122 580.407,484.456 639.5,508.5 Z"/></g>
<g><path style="opacity:1" fill="#f9f8f8" d="M 194.5,439.5 C 195.822,439.33 196.989,439.663 198,440.5C 204.17,454.838 210.336,469.172 216.5,483.5C 216.167,484.167 215.833,484.833 215.5,485.5C 162.375,508.931 109.208,532.264 56,555.5C 55.228,555.355 54.5613,555.022 54,554.5C 47.2524,539.68 41.0858,524.68 35.5,509.5C 88.9098,486.959 141.91,463.625 194.5,439.5 Z"/></g>
<g><path style="opacity:1" fill="#4a4a48" d="M 743.5,453.5 C 740.833,450.5 738.167,447.5 735.5,444.5C 740.185,442.221 745.185,441.054 750.5,441C 748.295,445.243 745.962,449.409 743.5,453.5 Z"/></g>
<g><path style="opacity:1" fill="#b6b4b4" d="M 630.5,515.5 C 628.858,516.803 627.191,518.136 625.5,519.5C 569.567,495.372 513.234,472.039 456.5,449.5C 456.291,447.286 457.124,445.619 459,444.5C 516.388,467.9 573.555,491.566 630.5,515.5 Z"/></g>
<g><path style="opacity:0.982" fill="#e1c59e" d="M 735.5,444.5 C 738.167,447.5 740.833,450.5 743.5,453.5C 739.068,460.709 734.402,467.709 729.5,474.5C 726.939,472.36 724.605,470.027 722.5,467.5C 720.878,464.545 718.878,461.878 716.5,459.5C 715.378,456.562 713.378,454.562 710.5,453.5C 717.246,451.029 723.913,448.362 730.5,445.5C 732.117,444.962 733.784,444.629 735.5,444.5 Z"/></g>
<g><path style="opacity:1" fill="#b6b4b4" d="M 622.5,521.5 C 621.055,523.063 619.389,524.396 617.5,525.5C 562.526,502.682 507.526,479.849 452.5,457C 453.46,455.581 454.293,454.081 455,452.5C 510.639,475.99 566.472,498.99 622.5,521.5 Z"/></g>
<g><path style="opacity:0.998" fill="#e6881e" d="M 710.5,453.5 C 713.378,454.562 715.378,456.562 716.5,459.5C 655.167,507.167 593.833,554.833 532.5,602.5C 530.863,600.525 529.196,598.525 527.5,596.5C 540.684,586.072 553.684,575.406 566.5,564.5C 569.112,563.221 571.445,561.555 573.5,559.5C 585.476,550.852 597.143,541.852 608.5,532.5C 610.389,531.396 612.055,530.063 613.5,528.5C 615.23,527.974 616.564,526.974 617.5,525.5C 619.389,524.396 621.055,523.063 622.5,521.5C 623.71,521.068 624.71,520.401 625.5,519.5C 627.191,518.136 628.858,516.803 630.5,515.5C 631.5,514.833 632.5,514.167 633.5,513.5C 635.525,511.804 637.525,510.137 639.5,508.5C 640.5,507.833 641.5,507.167 642.5,506.5C 644.525,504.804 646.525,503.137 648.5,501.5C 652.817,498.514 656.817,495.18 660.5,491.5C 662.777,490.551 664.777,489.218 666.5,487.5C 667.833,486.833 668.833,485.833 669.5,484.5C 671.777,483.551 673.777,482.218 675.5,480.5C 676.5,480.167 677.167,479.5 677.5,478.5C 679.754,477.876 681.421,476.543 682.5,474.5C 684.404,474.262 685.738,473.262 686.5,471.5C 688.754,470.876 690.421,469.543 691.5,467.5C 692.71,467.068 693.71,466.401 694.5,465.5C 696.389,464.396 698.055,463.063 699.5,461.5C 700.872,460.488 702.205,459.488 703.5,458.5C 705.389,457.396 707.055,456.063 708.5,454.5C 709.167,454.167 709.833,453.833 710.5,453.5 Z"/></g>
<g><path style="opacity:1" fill="#f0ba01" d="M 716.5,459.5 C 718.878,461.878 720.878,464.545 722.5,467.5C 661.189,514.816 600.189,562.482 539.5,610.5C 536.705,608.249 534.372,605.582 532.5,602.5C 593.833,554.833 655.167,507.167 716.5,459.5 Z"/></g>
<g><path style="opacity:1" fill="#b6b4b4" d="M 613.5,528.5 C 612.055,530.063 610.389,531.396 608.5,532.5C 556.485,510.167 504.152,488.334 451.5,467C 450.572,466.612 449.905,465.945 449.5,465C 449.821,462.456 451.155,461.456 453.5,462C 506.822,484.272 560.155,506.438 613.5,528.5 Z"/></g>
<g><path style="opacity:0.995" fill="#e6881e" d="M 722.5,467.5 C 724.605,470.027 726.939,472.36 729.5,474.5C 725.817,478.18 721.817,481.514 717.5,484.5C 715.251,485.08 713.585,486.413 712.5,488.5C 701.235,496.425 690.235,504.758 679.5,513.5C 677.475,515.196 675.475,516.863 673.5,518.5C 672.5,519.167 671.5,519.833 670.5,520.5C 668.475,522.196 666.475,523.863 664.5,525.5C 663.5,526.167 662.5,526.833 661.5,527.5C 659.833,528.5 658.5,529.833 657.5,531.5C 655.596,531.738 654.262,532.738 653.5,534.5C 651.251,535.08 649.585,536.413 648.5,538.5C 646.596,538.738 645.262,539.738 644.5,541.5C 642.596,541.738 641.262,542.738 640.5,544.5C 628.188,553.158 616.522,562.491 605.5,572.5C 603.5,573.833 601.5,575.167 599.5,576.5C 589.898,583.428 580.565,590.762 571.5,598.5C 562.518,605.142 553.518,611.809 544.5,618.5C 542.833,615.833 541.167,613.167 539.5,610.5C 600.189,562.482 661.189,514.816 722.5,467.5 Z"/></g>
<g><path style="opacity:0.754" fill="#6d4e96" d="M 717.5,484.5 C 711.072,504.78 703.072,524.446 693.5,543.5C 692.311,544.429 690.978,544.762 689.5,544.5C 690.5,541.833 691.5,539.167 692.5,536.5C 693.167,536.5 693.5,536.167 693.5,535.5C 693.5,535.167 693.5,534.833 693.5,534.5C 694.167,534.5 694.5,534.167 694.5,533.5C 694.5,533.167 694.5,532.833 694.5,532.5C 695.167,532.5 695.5,532.167 695.5,531.5C 695.5,530.833 695.5,530.167 695.5,529.5C 696.167,529.5 696.5,529.167 696.5,528.5C 696.5,528.167 696.5,527.833 696.5,527.5C 697.167,527.5 697.5,527.167 697.5,526.5C 697.5,526.167 697.5,525.833 697.5,525.5C 698.338,525.158 698.672,524.492 698.5,523.5C 699.338,523.158 699.672,522.492 699.5,521.5C 700.833,520.833 700.833,520.167 699.5,519.5C 699.5,518.833 699.833,518.5 700.5,518.5C 701.338,518.158 701.672,517.492 701.5,516.5C 702.338,516.158 702.672,515.492 702.5,514.5C 703.404,513.791 703.737,512.791 703.5,511.5C 704.338,511.158 704.672,510.492 704.5,509.5C 705.404,508.791 705.737,507.791 705.5,506.5C 706.338,506.158 706.672,505.492 706.5,504.5C 706.5,504.167 706.5,503.833 706.5,503.5C 707.167,503.5 707.5,503.167 707.5,502.5C 707.5,502.167 707.5,501.833 707.5,501.5C 708.338,501.158 708.672,500.492 708.5,499.5C 708.5,499.167 708.5,498.833 708.5,498.5C 709.167,498.5 709.5,498.167 709.5,497.5C 709.5,496.833 709.5,496.167 709.5,495.5C 710.167,495.5 710.5,495.167 710.5,494.5C 710.971,492.421 711.637,490.421 712.5,488.5C 713.585,486.413 715.251,485.08 717.5,484.5 Z"/></g>
<g><path style="opacity:0.983" fill="#f5f1f1" d="M 712.5,488.5 C 711.637,490.421 710.971,492.421 710.5,494.5C 709.833,494.5 709.5,494.833 709.5,495.5C 709.5,496.167 709.5,496.833 709.5,497.5C 708.833,497.5 708.5,497.833 708.5,498.5C 708.5,498.833 708.5,499.167 708.5,499.5C 707.662,499.842 707.328,500.508 707.5,501.5C 707.5,501.833 707.5,502.167 707.5,502.5C 706.833,502.5 706.5,502.833 706.5,503.5C 706.5,503.833 706.5,504.167 706.5,504.5C 705.662,504.842 705.328,505.508 705.5,506.5C 704.596,507.209 704.263,508.209 704.5,509.5C 703.662,509.842 703.328,510.508 703.5,511.5C 702.596,512.209 702.263,513.209 702.5,514.5C 701.662,514.842 701.328,515.508 701.5,516.5C 700.662,516.842 700.328,517.508 700.5,518.5C 699.833,518.5 699.5,518.833 699.5,519.5C 699.5,520.167 699.5,520.833 699.5,521.5C 698.662,521.842 698.328,522.508 698.5,523.5C 697.662,523.842 697.328,524.508 697.5,525.5C 697.5,525.833 697.5,526.167 697.5,526.5C 696.833,526.5 696.5,526.833 696.5,527.5C 696.5,527.833 696.5,528.167 696.5,528.5C 695.833,528.5 695.5,528.833 695.5,529.5C 695.5,530.167 695.5,530.833 695.5,531.5C 694.833,531.5 694.5,531.833 694.5,532.5C 694.5,532.833 694.5,533.167 694.5,533.5C 693.833,533.5 693.5,533.833 693.5,534.5C 693.5,534.833 693.5,535.167 693.5,535.5C 692.833,535.5 692.5,535.833 692.5,536.5C 691.5,539.167 690.5,541.833 689.5,544.5C 682.406,561.027 675.572,577.694 669,594.5C 668.578,596.426 667.411,597.426 665.5,597.5C 664.791,596.596 663.791,596.263 662.5,596.5C 643.739,588.129 624.739,580.129 605.5,572.5C 616.522,562.491 628.188,553.158 640.5,544.5C 649.102,548.962 658.102,552.629 667.5,555.5C 667.421,554.07 667.754,552.736 668.5,551.5C 660.717,547.607 652.717,544.274 644.5,541.5C 645.262,539.738 646.596,538.738 648.5,538.5C 655.718,541.358 662.885,544.358 670,547.5C 671.505,545.702 671.672,543.868 670.5,542C 664.807,539.485 659.141,536.985 653.5,534.5C 654.262,532.738 655.596,531.738 657.5,531.5C 662.566,534.198 667.9,536.532 673.5,538.5C 674.958,536.862 675.292,535.195 674.5,533.5C 669.956,531.725 665.623,529.725 661.5,527.5C 662.5,526.833 663.5,526.167 664.5,525.5C 668.817,526.999 673.15,528.166 677.5,529C 678.293,527.915 678.96,526.748 679.5,525.5C 676.092,524.381 673.092,522.715 670.5,520.5C 671.5,519.833 672.5,519.167 673.5,518.5C 675.886,519.298 678.22,520.298 680.5,521.5C 681.357,520.264 682.023,518.931 682.5,517.5C 681.174,516.358 680.174,515.024 679.5,513.5C 690.235,504.758 701.235,496.425 712.5,488.5 Z"/></g>
<g><path style="opacity:1" fill="#476d7b" d="M 432.5,500.5 C 476.797,518.321 520.797,536.655 564.5,555.5C 564.858,558.689 565.525,561.689 566.5,564.5C 553.684,575.406 540.684,586.072 527.5,596.5C 525.246,597.124 523.579,598.457 522.5,600.5C 516.711,604.715 511.378,609.382 506.5,614.5C 502.282,592.966 496.782,571.632 490,550.5C 493.461,588.707 490.295,626.374 480.5,663.5C 476.893,664.489 473.226,664.823 469.5,664.5C 474.712,646.493 471.545,629.827 460,614.5C 455.474,609.494 450.307,605.327 444.5,602C 463.367,583.64 467.2,562.473 456,538.5C 448.161,525.668 436.994,517.335 422.5,513.5C 425.099,508.572 428.432,504.239 432.5,500.5 Z"/></g>
<g><path style="opacity:1" fill="#f9f7f7" d="M 206.5,503.5 C 212.734,502.373 217.568,504.373 221,509.5C 226.667,522.5 232.333,535.5 238,548.5C 238.464,556.057 234.964,560.89 227.5,563C 211.5,570 195.5,577 179.5,584C 174.848,585.193 170.681,584.36 167,581.5C 161,568.167 155,554.833 149,541.5C 147.574,536.243 148.741,531.743 152.5,528C 170.709,520.058 188.709,511.891 206.5,503.5 Z"/></g>
<g><path style="opacity:0.991" fill="#f0ab15" d="M 422.5,513.5 C 436.994,517.335 448.161,525.668 456,538.5C 467.2,562.473 463.367,583.64 444.5,602C 450.307,605.327 455.474,609.494 460,614.5C 471.545,629.827 474.712,646.493 469.5,664.5C 469.5,664.833 469.5,665.167 469.5,665.5C 466.965,670.719 463.965,675.719 460.5,680.5C 459.833,680.5 459.5,680.833 459.5,681.5C 457.833,682.5 456.5,683.833 455.5,685.5C 439.967,698.64 422.3,702.14 402.5,696C 390.496,690.826 381.163,682.66 374.5,671.5C 354.984,679.646 336.651,677.646 319.5,665.5C 319.672,664.508 319.338,663.842 318.5,663.5C 306.723,653.103 300.723,639.936 300.5,624C 303.435,595.898 318.768,579.064 346.5,573.5C 351.214,573.353 355.881,573.686 360.5,574.5C 359.78,563.948 360.78,553.614 363.5,543.5C 367.985,534.01 374.652,526.343 383.5,520.5C 395.444,512.765 408.444,510.432 422.5,513.5 Z"/></g>
<g><path style="opacity:1" fill="#bab6b4" d="M 679.5,513.5 C 680.174,515.024 681.174,516.358 682.5,517.5C 682.023,518.931 681.357,520.264 680.5,521.5C 678.22,520.298 675.886,519.298 673.5,518.5C 675.475,516.863 677.475,515.196 679.5,513.5 Z"/></g>
<g><path style="opacity:1" fill="#b9b5b4" d="M 670.5,520.5 C 673.092,522.715 676.092,524.381 679.5,525.5C 678.96,526.748 678.293,527.915 677.5,529C 673.15,528.166 668.817,526.999 664.5,525.5C 666.475,523.863 668.475,522.196 670.5,520.5 Z"/></g>
<g><path style="opacity:1" fill="#55505c" d="M 187.5,526.5 C 188.376,526.369 189.043,526.702 189.5,527.5C 190.897,531.294 192.564,534.961 194.5,538.5C 197.945,536.008 201.611,535.008 205.5,535.5C 206.5,537.5 207.5,539.5 208.5,541.5C 205.369,543.401 202.035,544.735 198.5,545.5C 199.242,549.662 200.576,553.662 202.5,557.5C 200.882,559.316 198.882,560.649 196.5,561.5C 194.36,558.049 192.36,554.549 190.5,551C 186.958,551.257 183.624,552.423 180.5,554.5C 179.074,552.063 177.741,549.563 176.5,547C 179.48,544.676 182.813,543.176 186.5,542.5C 185.868,538.439 184.535,534.606 182.5,531C 183.761,529.038 185.428,527.538 187.5,526.5 Z"/></g>
<g><path style="opacity:1" fill="#b7b4b3" d="M 661.5,527.5 C 665.623,529.725 669.956,531.725 674.5,533.5C 675.292,535.195 674.958,536.862 673.5,538.5C 667.9,536.532 662.566,534.198 657.5,531.5C 658.5,529.833 659.833,528.5 661.5,527.5 Z"/></g>
<g><path style="opacity:1" fill="#fdf5e5" d="M 402.5,515.5 C 429.833,513.405 448.333,525.072 458,550.5C 462.617,576.428 453.451,595.594 430.5,608C 407.375,616.289 387.875,611.122 372,592.5C 356.987,567.414 360.154,544.914 381.5,525C 388.015,520.559 395.015,517.393 402.5,515.5 Z"/></g>
<g><path style="opacity:1" fill="#f2ac10" d="M 405.5,516.5 C 425.683,515.674 441.183,523.674 452,540.5C 462.805,565.399 457.639,586.232 436.5,603C 411.257,616.019 389.757,611.519 372,589.5C 358.209,562.772 363.375,540.606 387.5,523C 393.305,519.914 399.305,517.747 405.5,516.5 Z"/></g>
<g><path style="opacity:1" fill="#b7b4b3" d="M 653.5,534.5 C 659.141,536.985 664.807,539.485 670.5,542C 671.672,543.868 671.505,545.702 670,547.5C 662.885,544.358 655.718,541.358 648.5,538.5C 649.585,536.413 651.251,535.08 653.5,534.5 Z"/></g>
<g><path style="opacity:1" fill="#f9f7f7" d="M 129.5,537.5 C 134.969,536.71 139.469,538.377 143,542.5C 148.667,555.5 154.333,568.5 160,581.5C 161.076,586.072 160.243,590.239 157.5,594C 138.833,602.333 120.167,610.667 101.5,619C 95.9384,620.581 91.4384,619.081 88,614.5C 82.3333,601.5 76.6667,588.5 71,575.5C 69.4601,567.001 72.9601,561.501 81.5,559C 97.7084,552.058 113.708,544.891 129.5,537.5 Z"/></g>
<g><path style="opacity:1" fill="#b7b4b3" d="M 644.5,541.5 C 652.717,544.274 660.717,547.607 668.5,551.5C 667.754,552.736 667.421,554.07 667.5,555.5C 658.102,552.629 649.102,548.962 640.5,544.5C 641.262,542.738 642.596,541.738 644.5,541.5 Z"/></g>
<g><path style="opacity:0.994" fill="#3f5a65" d="M 506.5,614.5 C 506.311,618.037 506.977,621.37 508.5,624.5C 507.861,625.097 507.528,625.93 507.5,627C 508.707,639.485 509.707,651.985 510.5,664.5C 509.167,664.833 507.833,665.167 506.5,665.5C 494.167,665.5 481.833,665.5 469.5,665.5C 469.5,665.167 469.5,664.833 469.5,664.5C 473.226,664.823 476.893,664.489 480.5,663.5C 490.295,626.374 493.461,588.707 490,550.5C 496.782,571.632 502.282,592.966 506.5,614.5 Z"/></g>
<g><path style="opacity:1" fill="#55505b" d="M 124.5,568.5 C 125.822,568.33 126.989,568.663 128,569.5C 129.619,571.956 130.119,574.456 129.5,577C 121.167,580.667 112.833,584.333 104.5,588C 103.365,588.749 102.365,588.583 101.5,587.5C 100.786,585.189 99.7865,583.022 98.5,581C 107.349,577.075 116.016,572.908 124.5,568.5 Z"/></g>
<g><path style="opacity:1" fill="#524c58" d="M 241.5,577.5 C 247.07,576.416 251.57,578.083 255,582.5C 260.667,595.167 266.333,607.833 272,620.5C 273.426,625.757 272.259,630.257 268.5,634C 250.5,642 232.5,650 214.5,658C 208.11,659.942 203.277,658.109 200,652.5C 194.608,639.383 188.942,626.383 183,613.5C 182.383,608.892 183.883,605.059 187.5,602C 205.709,594.058 223.709,585.891 241.5,577.5 Z"/></g>
<g><path style="opacity:0.757" fill="#715096" d="M 599.5,576.5 C 590.801,586.2 581.467,595.2 571.5,603.5C 571.5,601.833 571.5,600.167 571.5,598.5C 580.565,590.762 589.898,583.428 599.5,576.5 Z"/></g>
<g><path style="opacity:1" fill="#e8981a" d="M 404.5,528.5 C 424.98,527.15 438.48,536.15 445,555.5C 448.023,577.631 438.857,591.798 417.5,598C 396.424,599.885 382.924,590.719 377,570.5C 374.886,549.051 384.053,535.051 404.5,528.5 Z"/></g>
<g><path style="opacity:1" fill="#fbcc41" d="M 405.5,530.5 C 424.152,529.735 436.652,538.068 443,555.5C 445.844,576.647 437.01,590.147 416.5,596C 397.347,597.337 384.847,588.837 379,570.5C 377.1,549.949 385.933,536.615 405.5,530.5 Z"/></g>
<g><path style="opacity:1" fill="#fefcf6" d="M 405.5,543.5 C 417.971,542.302 424.637,547.969 425.5,560.5C 422.039,559.889 419.372,561.056 417.5,564C 420.146,564.497 422.813,564.664 425.5,564.5C 425.5,566.167 425.5,567.833 425.5,569.5C 419.242,569.19 413.076,569.524 407,570.5C 405.958,573.804 407.125,575.971 410.5,577C 414.993,577.117 419.326,576.283 423.5,574.5C 424.809,579.689 422.809,582.522 417.5,583C 403.904,584.581 396.904,578.414 396.5,564.5C 400.495,565.117 403.828,563.951 406.5,561C 403.183,560.502 399.85,560.335 396.5,560.5C 396.5,559.167 396.5,557.833 396.5,556.5C 402.758,556.81 408.924,556.476 415,555.5C 415.677,553.018 414.844,551.185 412.5,550C 408.588,549.069 405.088,549.903 402,552.5C 400.513,550.728 400.18,548.728 401,546.5C 402.652,545.601 404.152,544.601 405.5,543.5 Z"/></g>
<g><path style="opacity:0.941" fill="#6e509a" d="M 662.5,596.5 C 663.209,597.404 664.209,597.737 665.5,597.5C 675.276,604.882 675.943,613.049 667.5,622C 657.305,626.819 650.139,623.986 646,613.5C 645.519,602.147 651.019,596.48 662.5,596.5 Z"/></g>
<g><path style="opacity:1" fill="#f2e191" d="M 527.5,596.5 C 529.196,598.525 530.863,600.525 532.5,602.5C 534.372,605.582 536.705,608.249 539.5,610.5C 541.167,613.167 542.833,615.833 544.5,618.5C 543.738,620.262 542.404,621.262 540.5,621.5C 537.167,617.833 533.833,614.167 530.5,610.5C 528.183,606.854 525.516,603.52 522.5,600.5C 523.579,598.457 525.246,597.124 527.5,596.5 Z"/></g>
<g><path style="opacity:0.994" fill="#476b7a" d="M 571.5,598.5 C 571.5,600.167 571.5,601.833 571.5,603.5C 574.825,624.094 577.825,644.761 580.5,665.5C 559.167,665.5 537.833,665.5 516.5,665.5C 514.735,664.539 512.735,664.205 510.5,664.5C 509.707,651.985 508.707,639.485 507.5,627C 507.528,625.93 507.861,625.097 508.5,624.5C 508.833,625.167 509.167,625.833 509.5,626.5C 513.839,633.335 519.839,635.501 527.5,633C 532.027,629.301 536.361,625.468 540.5,621.5C 542.404,621.262 543.738,620.262 544.5,618.5C 553.518,611.809 562.518,605.142 571.5,598.5 Z"/></g>
<g><path style="opacity:1" fill="#d5393c" d="M 522.5,600.5 C 525.516,603.52 528.183,606.854 530.5,610.5C 525.362,615.468 520.029,620.301 514.5,625C 512.975,626.009 511.308,626.509 509.5,626.5C 509.167,625.833 508.833,625.167 508.5,624.5C 506.977,621.37 506.311,618.037 506.5,614.5C 511.378,609.382 516.711,604.715 522.5,600.5 Z"/></g>
<g><path style="opacity:1" fill="#fdf4e1" d="M 343.5,576.5 C 348.844,576.334 354.177,576.501 359.5,577C 360.624,577.249 361.624,577.749 362.5,578.5C 335.635,575.513 317.135,586.513 307,611.5C 301.595,640.201 312.428,659.701 339.5,670C 370.157,674.761 389.657,662.261 398,632.5C 398.742,626.801 398.575,621.134 397.5,615.5C 397.833,614.833 398.167,614.167 398.5,613.5C 402.962,634.612 396.628,651.779 379.5,665C 351.749,679.768 328.582,674.601 310,649.5C 297.791,623.503 302.958,601.67 325.5,584C 331.328,580.788 337.328,578.288 343.5,576.5 Z"/></g>
<g><path style="opacity:1" fill="#f3f2f2" d="M 234.5,604.5 C 238.587,604.729 240.254,606.729 239.5,610.5C 231.833,614 224.167,617.5 216.5,621C 215.056,621.781 213.723,621.614 212.5,620.5C 211.926,618.941 211.26,617.441 210.5,616C 218.713,612.392 226.713,608.558 234.5,604.5 Z"/></g>
<g><path style="opacity:1" fill="#e05960" d="M 530.5,610.5 C 533.833,614.167 537.167,617.833 540.5,621.5C 536.361,625.468 532.027,629.301 527.5,633C 519.839,635.501 513.839,633.335 509.5,626.5C 511.308,626.509 512.975,626.009 514.5,625C 520.029,620.301 525.362,615.468 530.5,610.5 Z"/></g>
<g><path style="opacity:1" fill="#e8981b" d="M 342.5,590.5 C 363.871,587.71 378.371,596.376 386,616.5C 388.873,636.604 381.039,650.438 362.5,658C 347.813,662.214 335.313,658.714 325,647.5C 310.416,622.091 316.249,603.091 342.5,590.5 Z"/></g>
<g><path style="opacity:1" fill="#fbcc41" d="M 343.5,592.5 C 371.343,590.846 384.843,603.846 384,631.5C 378,650.925 364.833,659.425 344.5,657C 325.004,650.527 316.837,637.027 320,616.5C 324.018,604.65 331.851,596.65 343.5,592.5 Z"/></g>
<g><path style="opacity:1" fill="#fefbf5" d="M 344.5,605.5 C 349.599,605.175 354.599,605.675 359.5,607C 362.87,609.697 364.204,613.197 363.5,617.5C 364.5,617.5 365.5,617.5 366.5,617.5C 366.5,619.167 366.5,620.833 366.5,622.5C 362.836,622 359.836,623.167 357.5,626C 360.482,626.498 363.482,626.665 366.5,626.5C 366.5,627.833 366.5,629.167 366.5,630.5C 360.491,630.334 354.491,630.501 348.5,631C 347.533,637.023 350.2,639.356 356.5,638C 359,637.625 361.333,636.792 363.5,635.5C 364.952,638.282 364.619,640.782 362.5,643C 346.869,647.531 338.536,641.698 337.5,625.5C 340.893,625.938 343.893,625.105 346.5,623C 343.518,622.502 340.518,622.335 337.5,622.5C 337.5,620.833 337.5,619.167 337.5,617.5C 343.5,617.5 349.5,617.5 355.5,617.5C 355.739,615.533 355.406,613.699 354.5,612C 350.003,611.271 345.67,611.771 341.5,613.5C 340.829,610.014 341.829,607.347 344.5,605.5 Z"/></g>
<g><path style="opacity:1" fill="#f8f7f6" d="M 159.5,613.5 C 162.85,613.335 166.183,613.502 169.5,614C 170.931,614.465 172.097,615.299 173,616.5C 179,629.833 185,643.167 191,656.5C 191.995,664.001 188.828,668.835 181.5,671C 165.5,678 149.5,685 133.5,692C 127.26,693.463 122.76,691.297 120,685.5C 115.194,674.084 110.194,662.75 105,651.5C 102.27,645.704 103.437,640.87 108.5,637C 125.591,629.118 142.591,621.284 159.5,613.5 Z"/></g>
<g><path style="opacity:1" fill="#f2f1f2" d="M 239.5,614.5 C 240.552,614.351 241.552,614.517 242.5,615C 243.5,616.667 244.5,618.333 245.5,620C 236.378,624.312 227.211,628.479 218,632.5C 216.036,630.147 215.536,627.647 216.5,625C 224.496,621.999 232.162,618.499 239.5,614.5 Z"/></g>
<g><path style="opacity:1" fill="#fbcc42" d="M 417.5,614.5 C 443.935,616.421 455.435,630.421 452,656.5C 445.821,673.512 433.654,681.346 415.5,680C 403.554,677.386 395.22,670.553 390.5,659.5C 399.217,647.681 403.55,634.348 403.5,619.5C 407.752,616.709 412.419,615.042 417.5,614.5 Z"/></g>
<g><path style="opacity:1" fill="#fefcf8" d="M 414.5,627.5 C 422.045,625.864 427.878,628.197 432,634.5C 432.495,636.473 432.662,638.473 432.5,640.5C 433.5,640.5 434.5,640.5 435.5,640.5C 435.5,641.833 435.5,643.167 435.5,644.5C 431.838,644.003 428.838,645.169 426.5,648C 429.482,648.498 432.482,648.665 435.5,648.5C 435.5,649.833 435.5,651.167 435.5,652.5C 429.242,652.19 423.076,652.524 417,653.5C 416.104,656.025 416.604,658.192 418.5,660C 423.647,660.706 428.647,660.206 433.5,658.5C 433.833,664.004 431.166,666.837 425.5,667C 414.409,668.404 408.742,663.57 408.5,652.5C 407.5,652.5 406.5,652.5 405.5,652.5C 405.5,651.167 405.5,649.833 405.5,648.5C 409.495,649.117 412.828,647.951 415.5,645C 412.183,644.502 408.85,644.335 405.5,644.5C 405.5,643.167 405.5,641.833 405.5,640.5C 411.833,640.5 418.167,640.5 424.5,640.5C 424.896,637.956 424.229,635.789 422.5,634C 418.339,633.333 414.339,633.833 410.5,635.5C 409.96,631.731 411.294,629.064 414.5,627.5 Z"/></g>
<g><path style="opacity:1" fill="#fef4e0" d="M 441.5,605.5 C 441.56,604.957 441.893,604.624 442.5,604.5C 455.974,611.147 464.474,621.814 468,636.5C 471.729,666.567 459.229,686.067 430.5,695C 407.016,698.256 389.35,689.756 377.5,669.5C 377.833,669.167 378.167,668.833 378.5,668.5C 395.324,694.271 417.657,700.438 445.5,687C 466.676,670.801 472.176,650.301 462,625.5C 457.285,616.618 450.452,609.951 441.5,605.5 Z"/></g>
<g><path style="opacity:1" fill="#58535e" d="M 142.5,639.5 C 143.978,639.238 145.311,639.571 146.5,640.5C 147.634,643.07 148.468,645.736 149,648.5C 151.016,646.316 153.183,644.316 155.5,642.5C 157.316,643.815 158.983,645.315 160.5,647C 158.167,648.667 155.833,650.333 153.5,652C 155.483,653.889 157.816,655.222 160.5,656C 161.451,656.718 161.617,657.551 161,658.5C 160.059,660.061 158.892,661.395 157.5,662.5C 154.864,661.029 152.364,659.363 150,657.5C 148.851,660.393 148.351,663.393 148.5,666.5C 146.167,666.5 143.833,666.5 141.5,666.5C 141.647,663.557 142.313,660.724 143.5,658C 143.167,657.5 142.833,657 142.5,656.5C 140.167,657.167 137.833,657.833 135.5,658.5C 134.52,655.914 134.187,653.247 134.5,650.5C 137.518,650.665 140.518,650.498 143.5,650C 141.709,647.586 140.043,645.086 138.5,642.5C 139.901,641.479 141.235,640.479 142.5,639.5 Z"/></g>
<g><path style="opacity:0.777" fill="#6b4d97" d="M 393.5,731.5 C 388.5,731.5 383.5,731.5 378.5,731.5C 318.728,729.555 262.728,713.888 210.5,684.5C 211.635,682.787 213.302,682.12 215.5,682.5C 306.367,732.239 401.034,740.739 499.5,708C 528.614,697.447 555.614,683.281 580.5,665.5C 585.792,662.512 590.792,659.012 595.5,655C 597.289,654.48 598.956,654.813 600.5,656C 539.739,703.423 470.739,728.59 393.5,731.5 Z"/></g>
<g><path style="opacity:0.231" fill="#d2ced0" d="M 318.5,663.5 C 319.338,663.842 319.672,664.508 319.5,665.5C 302.833,665.5 286.167,665.5 269.5,665.5C 285.833,664.833 302.167,664.167 318.5,663.5 Z"/></g>
<g><path style="opacity:0.702" fill="#694b96" d="M 510.5,664.5 C 512.735,664.205 514.735,664.539 516.5,665.5C 513.702,666.1 511.035,667.1 508.5,668.5C 507.081,667.995 506.415,666.995 506.5,665.5C 507.833,665.167 509.167,664.833 510.5,664.5 Z"/></g>
<g><path style="opacity:0.714" fill="#6c4e98" d="M 492.5,670.5 C 493.5,670.5 494.5,670.5 495.5,670.5C 495.67,671.822 495.337,672.989 494.5,674C 490.539,675.598 486.539,677.098 482.5,678.5C 481.571,677.311 481.238,675.978 481.5,674.5C 485.537,673.935 489.203,672.601 492.5,670.5 Z"/></g>
<g><path style="opacity:1" fill="#e8981a" d="M 417.5,614.5 C 439.76,612.895 452.427,623.395 455.5,646C 453.351,671.15 439.684,683.15 414.5,682C 402.055,679.293 393.388,672.126 388.5,660.5C 388.957,659.702 389.624,659.369 390.5,659.5C 395.22,670.553 403.554,677.386 415.5,680C 433.654,681.346 445.821,673.512 452,656.5C 455.435,630.421 443.935,616.421 417.5,614.5 Z"/></g>
<g><path style="opacity:0.758" fill="#674a94" d="M 296.5,677.5 C 300.737,677.969 304.737,679.136 308.5,681C 307.953,681.925 307.287,682.758 306.5,683.5C 302.682,682.561 299.015,681.227 295.5,679.5C 295.863,678.817 296.196,678.15 296.5,677.5 Z"/></g>
<g><path style="opacity:0.752" fill="#6c4d95" d="M 455.5,685.5 C 456.5,683.833 457.833,682.5 459.5,681.5C 460.167,681.5 460.5,681.167 460.5,680.5C 463.48,680.38 466.313,679.713 469,678.5C 469.49,679.793 469.657,681.127 469.5,682.5C 464.833,683.5 460.167,684.5 455.5,685.5 Z"/></g>
<g><path style="opacity:0.742" fill="#6d4d97" d="M 320.5,683.5 C 325.147,684.296 329.814,684.963 334.5,685.5C 334.762,686.978 334.429,688.311 333.5,689.5C 328.705,688.543 324.038,687.209 319.5,685.5C 319.863,684.817 320.196,684.15 320.5,683.5 Z"/></g>
<g><path style="opacity:0.682" fill="#694c96" d="M 346.5,687.5 C 351.5,688.167 356.5,688.833 361.5,689.5C 361.5,690.5 361.5,691.5 361.5,692.5C 356.518,691.947 351.518,691.613 346.5,691.5C 346.5,690.167 346.5,688.833 346.5,687.5 Z"/></g>
<g><path style="opacity:0.737" fill="#6d5099" d="M 374.5,690.5 C 379.167,690.5 383.833,690.5 388.5,690.5C 388.5,691.5 388.5,692.5 388.5,693.5C 383.456,693.827 378.456,693.494 373.5,692.5C 373.863,691.817 374.196,691.15 374.5,690.5 Z"/></g>
</svg>
