<svg xmlns="http://www.w3.org/2000/svg" xmlns:xlink="http://www.w3.org/1999/xlink" fill="none" version="1.1" width="16" height="14" viewBox="0 0 16 14"><g transform="matrix(1,0,0,-1,0,28)"><path d="M2,21L2,24L2,21L2,24L7,24L7,21L2,21ZM2,19L7,19L2,19L7,19L7,16L2,16L2,19ZM9,16L9,19L9,16L9,19L14,19L14,16L9,16ZM14,21L9,21L14,21L9,21L9,24L14,24L14,21ZM2,28Q1.15625,27.9688,0.59375,27.4062Q0.03125,26.8438,0,26L0,16Q0.03125,15.15625,0.59375,14.59375Q1.15625,14.03125,2,14L14,14Q14.8438,14.03125,15.4062,14.59375Q15.9688,15.15625,16,16L16,26Q15.9688,26.8438,15.4062,27.4062Q14.8438,27.9688,14,28L2,28Z" fill="#FFFFFF" fill-opacity="1" style="mix-blend-mode:passthrough"/></g></svg>